<?xml version="1.0" encoding="UTF-8"?>
<svg width="164px" height="42px" viewBox="0 0 164 42" version="1.1" xmlns="http://www.w3.org/2000/svg" xmlns:xlink="http://www.w3.org/1999/xlink">
    <title>Artboard</title>
    <g id="Artboard" stroke="none" stroke-width="1" fill="none" fill-rule="evenodd">
        <rect fill="#FFFFFF" opacity="0" x="0" y="0" width="164" height="42"></rect>
        <g id="KredX-Black-Logo" transform="translate(0.000000, 1.000000)">
            <path d="M144.786691,-9.52187615e-09 L152.019225,-9.52187615e-09 C152.53346,-9.52187615e-09 153.002586,0.293513388 153.227344,0.756030362 C153.452103,1.21854734 153.393031,1.76879734 153.075219,2.17306688 L139.426379,19.5390082 L153.073908,36.8892718 C153.391946,37.2934918 153.451197,37.8438463 153.226486,38.3064985 C153.001774,38.7691506 152.532572,39.0627667 152.018235,39.0627667 L144.793406,39.0627667 C143.480464,39.0627667 142.239392,38.4632191 141.423327,37.4346989 L133.85565,27.8970153 C133.589427,27.561472 133.444525,27.1457462 133.444499,26.7174192 L133.443911,12.3600352 C133.443911,11.9324078 133.588275,11.5173035 133.853697,11.1820176 L141.413535,1.63181338 C142.229521,0.60104288 143.472035,-9.52187615e-09 144.786691,-9.52187615e-09 Z" id="Path" fill="#33302D" fill-rule="nonzero"></path>
            <path d="M139.426379,19.5390082 L133.446345,12.3221788 C133.451718,11.9052018 133.596461,11.5020131 133.857522,11.1768274 L133.988615,11.011677 L146.128468,11.011677 L139.426379,19.5390082 Z" id="Path" fill="#1A1815" fill-rule="nonzero"></path>
            <path d="M119.728026,39.06274 L112.495492,39.06274 C111.981247,39.06274 111.51211,38.7692308 111.287349,38.3067038 C111.062588,37.8441768 111.12167,37.2939156 111.439498,36.8896463 L125.088338,19.5238388 L111.440702,2.17349494 C111.122664,1.76927487 111.063413,1.2189204 111.288125,0.756268258 C111.512836,0.293616119 111.982038,-1.14775865e-08 112.496375,-1.14775865e-08 L119.721204,-1.14775865e-08 C121.034141,-1.14775865e-08 122.275213,0.599530946 123.091284,1.62804111 L130.658961,11.1655909 C130.925183,11.5011342 131.070085,11.91686 131.070111,12.3451869 L131.070726,26.702571 C131.070726,27.1302065 130.926328,27.5453135 130.660914,27.8806153 L123.101182,37.4307928 C122.285223,38.4616135 121.042705,39.06274 119.728026,39.06274 Z" id="Path" fill="#32BFBD" fill-rule="nonzero"></path>
            <path d="M125.088338,19.5237318 L131.068372,26.7405612 C131.063005,27.1575346 130.918271,27.5607224 130.657222,27.8859126 L130.526129,28.051063 L118.386223,28.051063 L125.088338,19.5237318 Z" id="Path" fill="#009F9B" fill-rule="nonzero"></path>
            <path d="M76.3714825,24.9218467 C76.3714825,17.2930108 82.2651556,10.683784 91.252971,10.683784 C100.914042,10.683784 106.134459,17.6203152 106.134459,24.8953338 L98.8702493,24.8774623 C98.8702493,19.9727922 95.0455178,16.7988705 91.1194969,16.7988705 C86.4292842,16.7988705 83.1195073,20.4331158 83.1195073,24.8369573 C83.1195073,28.9136281 86.5472946,32.5599928 91.0859746,32.5599928 C95.5530349,32.5599928 98.8702225,28.7188613 98.8702225,24.8774623 L106.134459,24.8953338 C106.134459,30.7129997 102.566483,39.0979746 90.9039693,39.0979746 C82.1707419,39.0979746 76.3714825,32.2560176 76.3714825,24.9218467 Z" id="Path" fill="#33302D"></path>
            <path d="M106.134459,24.7574186 L98.8349077,12.4565625 L98.8349077,1.53852333 C98.8349077,1.13041307 98.9971558,0.739043712 99.285781,0.450513848 C99.5744061,0.161983985 99.9658291,-2.3294548e-08 100.373939,-2.3294548e-08 L104.595428,-2.3294548e-08 C105.003538,-2.3294548e-08 105.394961,0.161983985 105.683586,0.450513848 C105.972211,0.739043712 106.134459,1.13041307 106.134459,1.53852333 L106.134459,24.7574186 Z" id="Path" fill="#33302D" fill-rule="nonzero"></path>
            <path d="M52.4332613,27.0277886 L72.2385488,27.0277886 C73.2588803,27.0277886 73.9390923,26.5307054 74.0437794,25.5103471 C74.0699445,25.1440626 74.0960829,24.7515863 74.0960829,24.4114669 C74.0960829,16.850398 68.1832809,10.702137 59.8895896,10.702137 C51.4913449,10.702137 45.1598747,16.9550584 45.1598747,24.8824385 C45.1598747,32.8098186 51.308216,39.06274 60.5699889,39.06274 C65.5147628,39.06274 69.1252241,37.2051524 71.9508398,34.5103622 C72.7095739,33.7516548 72.6572705,32.8882871 71.8985096,32.129553 L70.616554,30.8475706 C69.883985,30.1150284 69.0728672,30.0888365 68.2357449,30.742937 C66.0642029,32.4435341 63.6572287,33.3330669 60.5437971,33.3330669 C56.2007132,33.3332007 53.06117,30.7952672 52.4332613,27.0277886 Z M59.8373931,16.4318101 C63.3432476,16.4318101 65.9071856,18.6817938 66.6920848,21.8998323 L52.6164437,21.8998323 C53.5097619,18.6538202 56.4707621,16.4116199 59.8373931,16.4318101 L59.8373931,16.4318101 Z" id="Shape" fill="#33302D" fill-rule="nonzero"></path>
            <path d="M45.0909305,12.6279732 C45.128487,12.1288054 44.9560801,11.6366028 44.6152551,11.269973 C44.2744301,10.9033432 43.796096,10.6955355 43.2955184,10.6966215 L39.9764581,10.703876 C33.3090686,10.7038612 27.903998,16.1088128 27.903998,22.7762023 L27.903998,37.5536457 C27.903998,38.3930205 28.5844458,39.0734682 29.4238206,39.0734682 L33.7450199,39.0734682 C34.5843947,39.0734682 35.2648424,38.3930205 35.2648424,37.5536457 L35.2648424,24.0981814 C35.2648424,20.3617313 38.2938337,17.33274 42.0302838,17.33274 L43.4540339,17.33274 C44.1776059,17.3327493 44.7788777,16.7750195 44.8331589,16.0534865 L45.0909305,12.6279732 Z" id="Path" fill="#33302D" fill-rule="nonzero"></path>
            <path d="M18.6443654,10.703876 L24.5699824,10.703876 C24.9797474,10.703876 25.3537058,10.9373426 25.5336105,11.3055024 C25.7135152,11.6736623 25.6679205,12.112156 25.4161207,12.4354271 L16.3685377,24.0518708 C15.9877811,24.5407645 15.9877811,25.2258247 16.3685377,25.7147184 L25.4161207,37.3311622 C25.6679205,37.6544333 25.7135152,38.092927 25.5336105,38.4610868 C25.3537058,38.8292466 24.9797474,39.0627132 24.5699824,39.0627132 L18.6386936,39.0627132 C17.7092907,39.0627132 16.8324212,38.6317509 16.2646532,37.8959321 L7.43396215,26.6586414 C6.63525658,25.6422794 6.63304831,24.2121157 7.42861142,23.193292 L16.2647334,11.8778806 C16.8322108,11.1377788 17.7117448,10.703876 18.6443654,10.703876 L18.6443654,10.703876 Z" id="Path" fill="#33302D" fill-rule="nonzero"></path>
            <path d="M5.85694029,39.06274 L1.50074715,39.06274 C0.671833505,39.06274 -0.000133768352,38.3907727 -0.000133768352,37.5618591 L-0.000133768352,1.50058662 C-0.000133768352,0.671672983 0.671833505,-0.000294290375 1.50074715,-0.000294290375 L5.85694029,-0.000294290375 C6.25498854,-0.000294290375 6.63673384,0.157828672 6.91818391,0.439303828 C7.19963398,0.720778983 7.35768745,1.10253838 7.35768745,1.50058662 L7.35768745,37.5618591 C7.35768745,38.3907205 6.68580169,39.06274 5.85694029,39.06274 L5.85694029,39.06274 Z" id="Path" fill="#33302D" fill-rule="nonzero"></path>
            <path d="M163.778908,3.97051223 C163.788008,5.57812901 162.826011,7.0323102 161.342935,7.65279463 C159.85986,8.27327906 158.148937,7.9373855 157.010531,6.80224385 C155.872125,5.6671022 155.53132,3.95715093 156.147543,2.47229963 C156.763767,0.987448319 158.215179,0.0212795099 159.822816,0.0257637847 C160.877217,0.0018178629 161.895695,0.409352781 162.642532,1.15404779 C163.389368,1.89874279 163.799826,2.9160466 163.778908,3.97051223 Z M163.25063,3.97051223 C163.27615,3.05279617 162.923585,2.16488511 162.275474,1.5146496 C161.627363,0.864414078 160.74061,0.508944917 159.822816,0.531461664 C158.417687,0.517774468 157.143702,1.35488069 156.59858,2.65003214 C156.053459,3.94518359 156.345377,5.44136853 157.337373,6.43661638 C158.329369,7.43186423 159.82459,7.72867657 161.121519,7.18779687 C162.418447,6.64691716 163.259718,5.37567836 163.25063,3.97051223 L163.25063,3.97051223 Z M160.890608,4.65607504 L161.913214,6.24064144 L161.137785,6.24064144 L160.205045,4.80212333 L158.979968,4.80212333 L158.979968,6.24064144 L158.215776,6.24064144 L158.215776,1.74530245 L160.014078,1.74530245 C161.137732,1.74530245 161.834585,2.34086591 161.834585,3.27371289 C161.869464,3.89513688 161.482149,4.46235472 160.890662,4.65607504 L160.890608,4.65607504 Z M161.092839,3.27371289 C161.092839,2.70048874 160.6769,2.38591909 159.957627,2.38591909 L158.968731,2.38591909 L158.968731,4.17285024 L159.957627,4.17285024 C160.676953,4.17285024 161.092839,3.84693703 161.092839,3.27371289 Z" id="Shape" fill="#33302D" fill-rule="nonzero"></path>
        </g>
    </g>
</svg>